<svg xmlns="http://www.w3.org/2000/svg" width="39.009" height="39.009" viewBox="0 0 39.009 39.009">
  <path id="add-icon" d="M39.009,19.5A19.5,19.5,0,0,1,0,19.5a1.524,1.524,0,0,1,3.048,0A16.457,16.457,0,1,0,19.5,3.048,1.524,1.524,0,1,1,19.5,0,19.494,19.494,0,0,1,39.009,19.5ZM12.221,4.708l1.971-.816a1.524,1.524,0,1,0-1.166-2.816l-1.971.816a1.524,1.524,0,1,0,1.166,2.816ZM7.113,8.622,8.622,7.113A1.524,1.524,0,0,0,6.467,4.958L4.958,6.467A1.524,1.524,0,0,0,7.113,8.622ZM1.9,15.017a1.524,1.524,0,0,0,1.991-.825l.816-1.971a1.524,1.524,0,1,0-2.816-1.166l-.816,1.971A1.524,1.524,0,0,0,1.9,15.017Zm17.6-3.131a1.524,1.524,0,0,0-1.524,1.524v4.571H13.409a1.524,1.524,0,1,0,0,3.048h4.571V25.6a1.524,1.524,0,1,0,3.048,0V21.028H25.6a1.524,1.524,0,1,0,0-3.048H21.028V13.409A1.524,1.524,0,0,0,19.5,11.885Z" fill="#4a5bcf"/>
</svg>
