<svg xmlns="http://www.w3.org/2000/svg" width="41" height="41" viewBox="0 0 41 41">
  <g id="fb" transform="translate(0 0.05)">
    <rect id="Rectangle_19" data-name="Rectangle 19" width="41" height="41" rx="11" transform="translate(0 -0.05)" fill="#defee6"/>
    <circle id="Ellipse_29" data-name="Ellipse 29" cx="17.6" cy="17.6" r="17.6" transform="translate(2.62 2.607)" fill="#32594a"/>
    <path id="circle-fb" d="M21.539,35.531H26.13V24.42h3.063l.406-3.828H26.13l0-1.917c0-1,.1-1.534,1.528-1.534h1.914V13.312H26.513c-3.679,0-4.974,1.858-4.974,4.981v2.3H19.246v3.829h2.293Zm2.883,9.312A20.422,20.422,0,1,1,44.844,24.422,20.422,20.422,0,0,1,24.422,44.844Z" transform="translate(-3.988 -4)" fill="#defee6" fill-rule="evenodd"/>
  </g>
</svg>
