<svg xmlns="http://www.w3.org/2000/svg" width="131.625" height="65.415" viewBox="0 0 131.625 65.415">
  <g id="logo" transform="translate(-72.085 -44.515)">
    <g id="Group_34" data-name="Group 34" transform="translate(72.836 44.963)">
      <g id="Group_33" data-name="Group 33" transform="translate(0 0)">
        <g id="Group_30" data-name="Group 30" transform="translate(0.207)">
          <path id="Path_28" data-name="Path 28" d="M433.374,342.1a5.937,5.937,0,0,1-1.983-.522,1.577,1.577,0,0,0-2.422.689c-.632,1.081-1.441,2.059-2.18,3.076-.2.272-.373.653-.78.57s-.484-.5-.519-.817c-.207-1.886-.622-3.824,1.094-5.325.51-.445.53-.884.075-1.461-3.4-4.31-3.986-9.3-3.375-14.539a22.554,22.554,0,0,1,3-8.941c2.44-4.137,6.207-6.2,10.794-6.912a19.5,19.5,0,0,1,9.087.407,13.318,13.318,0,0,1,3.917,2.1c.64.482,1.017.417,1.5-.163a5.111,5.111,0,0,1,1.787-1.4c.377-.17.849-.608,1.238-.116.3.374-.01.773-.214,1.155a8.32,8.32,0,0,1-1.488,1.87.681.681,0,0,0-.017,1.125c6.823,7.273,5.39,20-1.733,26.462-2.033,1.844-4.512,2.459-7.063,2.965-.746.148-1.517.166-2.276.243h-3.032c.134-.648,1.132-.784.637-1.428-.319-.415-.539.433-.917.309-.494-.7.542-2.033-.606-2.185-.942-.125-1.608.843-1.615,2.035-.4-.424-.732-.785-1.078-1.129-.243-.241-.4-.832-.857-.481-.513.393-.017.786.257,1.013.6.5.317.766-.162,1.062A1.908,1.908,0,0,1,433.374,342.1Zm13.3-7.358c.268.043.411.562.77.222.238-.225.135-.488,0-.734-.11-.2-.217-.4-.326-.6l.509-.471a2.568,2.568,0,0,0,.457.329c.433.188,1.024.314,1.178-.191.2-.652-.547-.213-.766-.446a2.139,2.139,0,0,1-.229-.367c.171-.3.327-.617.7-.72.415.533.822,1.072,1.25,1.595.15.183.359.293.586.091.2-.179.051-.327-.045-.489-.182-.307-.542-.629,0-.935a1.854,1.854,0,0,0,.749-2.541c.379.009.488.322.633.58a.5.5,0,0,0,.76.244c.364-.245.123-.529-.081-.762-.175-.2-.383-.371-.548-.578-.252-.316-.676-.66-.373-1.08.348-.481.781-.2,1.2.051a5.419,5.419,0,0,0,1.712.8c.147-.613-.317-.792-.553-1.1a7.42,7.42,0,0,0,1.008.134,1.6,1.6,0,0,0,1.658-1.13,1.445,1.445,0,0,0-.65-1.87,1.505,1.505,0,0,0-1.978.164c-.965.9-.393,1.79-.048,2.692-.34.014-.541-.252-.8-.394-.809-.436-1.639-1.065-2.275.42-.357-1.368.209-2.577-.359-3.682a9.463,9.463,0,0,0-2.707-5.162c-.292-.281-.524-.561-.9-.067-1.094,1.43-2.221,2.835-3.33,4.254-2.976,3.809-5.939,7.628-8.932,11.423-.43.546-.391.84.246,1.089.282.11.54.278.815.406a9.872,9.872,0,0,0,5.4.477c.05.592-.116.964-.817.876a1.34,1.34,0,0,0-1.567.851,1.845,1.845,0,0,0,.308,2.025c.413.5.84.981,1.266,1.466.13.148.288.262.5.151.184-.1.348-.33.207-.456-.925-.832-.116-1.11.422-1.542a1.068,1.068,0,0,0,.362-.932c-.077-.667.234-.687.793-.644a1.428,1.428,0,0,0,1.747-1.465,3.224,3.224,0,0,0-.31-1.322l.041-.02.238-.154.733-.248c.457.132.626.351.142.658-.216.137-.424.234-.224.5a.488.488,0,0,0,.714.1,1.619,1.619,0,0,0,.713-1.474ZM430.111,325.2a13.645,13.645,0,0,0,1.559,6.491c.659,1.195.644,1.2,1.517.177q5.775-6.747,11.551-13.493c.363-.425.8-1.034.477-1.6a3.387,3.387,0,0,0-1.787-1.07,8.31,8.31,0,0,0-4.8-.132,14.891,14.891,0,0,0-5.592,2.849,7.6,7.6,0,0,0-2.644,4.038A10.541,10.541,0,0,0,430.111,325.2Z" transform="translate(-370.817 -307.572)" fill="#97d158"/>
          <path id="Path_29" data-name="Path 29" d="M263.757,539.155a6.752,6.752,0,0,1,2.473-3.993,1.839,1.839,0,0,1,2.935.5,10.73,10.73,0,0,1,1.4,4.794,29.469,29.469,0,0,1-3.088,16.993c-1.81,3.592-5.794,3.953-8.447.859a9.92,9.92,0,0,1-1.642-2.741c-.4-.988-.73-2.007-1.152-3.184a25.457,25.457,0,0,1-1.191,4.71,7.948,7.948,0,0,1-1.982,3.041,3.768,3.768,0,0,1-4.241.771,2.379,2.379,0,0,0-.684-1.787,5.962,5.962,0,0,1,1.67.1c.165.445-.732.5-.329.941.232.252.582.089.846-.078.388-.245.624-.567.406-1.052-.237-.528-.568-.908-1.227-.8-.191.032-.415.292-.436.248-.262-.7.556-.659.246-1.1-.073-.1-.356-.1-.538-.084-.473.038-.642.355-.645.79,0,.344,0,.688,0,1.032l-2.122.048c-2.886-2.534-4.608-5.847-6.1-9.285a23.978,23.978,0,0,1-2.313-9.159,8.054,8.054,0,0,1,.264-1.922c.6-2.64,2.76-2.831,4.5-1.964a6.1,6.1,0,0,1,3.5,4.762,24.428,24.428,0,0,0,2.7,8.216c.3.522.6,1.2,1.3,1.151.777-.051.942-.828,1.146-1.425.818-2.393,1.113-4.91,1.712-7.356a20.042,20.042,0,0,1,.767-2.63c.5-1.27,1.473-1.54,2.657-.783a6.872,6.872,0,0,1,2.531,3.85c.693,1.977,1.254,4,1.906,5.99.125.382.146.977.707.981a1.333,1.333,0,0,0,1.139-.829,5.43,5.43,0,0,0,.926-2.272l2.733-.009c.424,0,.908.037.863-.592-.035-.491.33-1.242-.664-1.233l-.009-.011.5-.646c-.748.04-1.4-.453-2.139-.139-.664.281-.886-.042-.877-.7C263.784,541.823,263.762,540.489,263.757,539.155Z" transform="translate(-216.628 -496.344)" fill="#97d158"/>
          <path id="Path_30" data-name="Path 30" d="M570.988,540.657c-3.731.032-6.327-.782-7.794-3.673a6.241,6.241,0,0,1-.331-5.113c.511-1.411,1.3-1.71,2.667-1.045,1.963.957,3.935,1.9,6.222,1.575a3.819,3.819,0,0,0,.781-.161c1.943-.715,2.188-1.909.647-3.293a12.517,12.517,0,0,0-6.6-2.962c-4.418-.668-6.175-6.217-4.482-9.435,1.006-1.913,2.978-2.621,4.959-2.924a9.751,9.751,0,0,1,7.929,2.159,4.367,4.367,0,0,1,.771.827c.872,1.22.549,2.085-.928,2.373-1.2.234-2.43.3-3.618.574-.826.189-2.122.074-2.1,1.3s1.3,1.264,2.181,1.371c2.352.287,4.726.443,6.9,1.5,4.5,2.187,6.786,7.84,2.36,12.7A13.045,13.045,0,0,1,570.988,540.657Z" transform="translate(-485.87 -478.767)" fill="#97d158"/>
          <path id="Path_31" data-name="Path 31" d="M783.046,483.25c5.256-.273,7.626,3.295,7.6,7.546a1.355,1.355,0,0,1-.608,1.251,20.6,20.6,0,0,1-8.655,3.688c-.836.129-1.6.4-1.775,1.352a1.827,1.827,0,0,0,1.056,1.985,5.794,5.794,0,0,0,5.5.148c1.049-.451,2.072-.964,3.107-1.449.49-.23,1.037-.51,1.5-.1.412.362.08.854-.054,1.283-1.1,3.495-4.937,6.115-8.938,6.426-5.329.415-8.951-4.238-10-7.705-1.775-5.853,1.458-10.778,6.518-13.368A8.77,8.77,0,0,1,783.046,483.25Zm.343,3.917c-2.462-.011-4.928,2.6-4.768,4.848.025.353-.011.711.556.565,2.43-.626,4.928-1.036,7.145-2.321.346-.2.734-.336.386-.84A4.367,4.367,0,0,0,783.389,487.167Z" transform="translate(-660.301 -453.609)" fill="#97d158"/>
          <path id="Path_32" data-name="Path 32" d="M673.136,460.237c1.528-.01,2.2.592,2.33,2.1.132,1.524.208,3.055.247,4.585a1.972,1.972,0,0,0,1.639,2.035,12.937,12.937,0,0,0,2.73.3,2.526,2.526,0,0,1,2.017.9,1.624,1.624,0,0,1-.879,2.759c-.767.232-1.548.423-2.3.69a3.163,3.163,0,0,0-2.24,3.25,30.434,30.434,0,0,0,1.212,7.8c.42,1.539,1.529,1.959,3.165,1.468,1.132-.34,2.267-.691,3.422-.932,1.706-.356,2.339.395,1.779,2.013-1.074,3.105-5.768,6.562-9.091,6.713a1.728,1.728,0,0,1-1.673-1.155,21.26,21.26,0,0,1-1.811-6.478c-.5-3.131-.886-6.28-1.357-9.417-.379-2.526-.955-3.015-3.456-3.213-.96-.076-2.1.052-2.288-1.355a2.192,2.192,0,0,1,1.822-2.545c2.624-.662,3.6-2.971,2.088-5.421a6.286,6.286,0,0,1-.514-1.146,1.689,1.689,0,0,1,.9-2.293A5.731,5.731,0,0,1,673.136,460.237Z" transform="translate(-573.236 -434.49)" fill="#97d158"/>
          <path id="Path_33" data-name="Path 33" d="M219.241,424.8c1.9.116,3.42-.944,5.06-1.633.571-.24,1.2-.857,1.761-.292.5.5.007,1.163-.217,1.7-1.253,3.027-3.723,4.539-6.77,5.2-4.659,1.011-7.7-1.27-9.74-4.876a9.5,9.5,0,0,1,1.244-11.453,11.075,11.075,0,0,1,9.672-3.92,6.112,6.112,0,0,1,5.579,5.177c.353,1.823-.037,3-1.778,3.874a21.752,21.752,0,0,1-6.825,2.516,1.612,1.612,0,0,0-1.481,1.088,1.63,1.63,0,0,0,.607,1.736A4.1,4.1,0,0,0,219.241,424.8Zm-4.45-7.422c.11.273-.23,1,.5.8,2.2-.611,4.475-.964,6.514-2.1.693-.385.623-.711.235-1.238a3.6,3.6,0,0,0-3.98-1.572A5.069,5.069,0,0,0,214.791,417.378Z" transform="translate(-191.995 -392.279)" fill="#97d158"/>
          <path id="Path_34" data-name="Path 34" d="M459.259,571.789c-.43.512-.726.911-1.068,1.265a7.563,7.563,0,0,1-12.489-2.086,11.608,11.608,0,0,1,0-9.99,7.037,7.037,0,0,1,5.9-4.145c2.142-.3,4.3-.261,6.159,1.114.494.365.737.2.989-.236.509-.878.977-.514,1.353.094a23.255,23.255,0,0,1,2.228,5.495,37.989,37.989,0,0,1,1.4,6.366,4.7,4.7,0,0,1-1.188,3.806c-.909,1.072-1.664,1.047-2.425-.129C459.845,572.931,459.635,572.48,459.259,571.789Zm-1.381-6.228a3.4,3.4,0,0,0-2.529-3.269c-2.835-.792-5.461,1.251-5.914,4.6a3.075,3.075,0,0,0,2.793,3.616A5.455,5.455,0,0,0,457.878,565.561Z" transform="translate(-388.691 -514.67)" fill="#97d158"/>
          <path id="Path_35" data-name="Path 35" d="M332.667,402c.138,1.863,1.222,3.856,2.112,5.911a25.98,25.98,0,0,1,1.372,3.392c.58,2.108-.478,3.231-2.589,2.769a4.305,4.305,0,0,1-3.109-2.626,56.784,56.784,0,0,1-3.2-10.254,3.905,3.905,0,0,1,1.234-3.859c.711-.682,1.551-1.06,2.391-.145.522.569,1.047.28,1.564.054a22.1,22.1,0,0,0,3.41-2.29,17.65,17.65,0,0,1,2.133-1.315,2.966,2.966,0,0,1,4.283,1.681c.766,1.885.741,3.658-.765,5.2a2.8,2.8,0,0,1-4,.446,6.928,6.928,0,0,0-2.492-1.35C333.471,399.34,332.645,400.006,332.667,402Z" transform="translate(-291.063 -378.81)" fill="#97d158"/>
          <path id="Path_36" data-name="Path 36" d="M120.4,451.14c-1.785,0-3.352.061-4.911-.022-.973-.052-2.075-.137-2.246-1.471-.137-1.075.5-1.806,1.846-2.26a6.025,6.025,0,0,1,1.677-.344c2.176-.09,4.351-.2,6.528-.273a6.087,6.087,0,0,1,1.481.1,1.736,1.736,0,0,1,1.311,2.682,13.316,13.316,0,0,1-2.756,3.477q-1.51,1.559-2.988,3.148c-.193.209-.5.465-.3.788.15.247.494.143.742.126,1.715-.114,3.428-.252,5.142-.381,1.016-.077,1.94-.008,2.211,1.253.346,1.609-.112,2.75-1.382,3.246a5.909,5.909,0,0,1-1.548.409,31.345,31.345,0,0,1-9.55-.758c-1.721-.363-2.017-1.239-1.154-2.78a24.444,24.444,0,0,1,4.235-5.07A9.415,9.415,0,0,0,120.4,451.14Z" transform="translate(-113.229 -423.288)" fill="#97d158"/>
          <path id="Path_37" data-name="Path 37" d="M484.153,498.2a1.908,1.908,0,0,0,1.068-.345c.479-.3.766-.562.162-1.062-.274-.227-.77-.62-.257-1.013.458-.351.614.24.857.482.346.343.675.7,1.078,1.129.007-1.192.673-2.16,1.615-2.035,1.148.153.112,1.49.606,2.185.377.124.6-.724.917-.309.5.644-.5.78-.637,1.428h3.032a15.948,15.948,0,0,1-5.833-.07A9.367,9.367,0,0,1,484.153,498.2Zm4.212-1.973c-.7.5-.607.926-.079,1.524A1.854,1.854,0,0,0,488.365,496.222Z" transform="translate(-421.595 -463.672)" fill="#97d158"/>
          <path id="Path_38" data-name="Path 38" d="M393.251,566.9c.994-.009.629.742.664,1.233.045.629-.439.591-.863.592l-2.733.009c.386-2.43.025-4.9.4-7.332.005,1.335.027,2.669.008,4-.009.657.213.98.877.7.744-.315,1.392.178,2.139.139l-.5.646a2.157,2.157,0,0,0-.573-.37c-.624-.16-1.294-.181-1.46.606-.107.509-.253,1.235.6,1.365.765.117,1.387-.08,1.444-1.016C393.26,567.287,393.251,567.1,393.251,566.9Z" transform="translate(-343.587 -518.597)" fill="#97d158"/>
          <path id="Path_39" data-name="Path 39" d="M287.482,679.8l2.121-.048,0,0a2.38,2.38,0,0,1,.684,1.787,1.535,1.535,0,0,1-.93-.378c.075-.844-.1-.965-1.1-.789A1.725,1.725,0,0,1,287.482,679.8Z" transform="translate(-258.094 -616.987)" fill="#97d158"/>
          <path id="Path_40" data-name="Path 40" d="M292.073,683.108c1.009-.177,1.179-.055,1.1.789A1.8,1.8,0,0,1,292.073,683.108Z" transform="translate(-261.91 -619.714)" fill="#97d158"/>
          <path id="Path_41" data-name="Path 41" d="M519.077,473.523l.632-.061c.083.72.369,1.233,1.209,1.168a.682.682,0,0,0,.675-.748c.036-.653-.328-.867-.909-.861l1.3-.489a3.23,3.23,0,0,1,.31,1.322,1.428,1.428,0,0,1-1.747,1.465c-.559-.043-.87-.023-.793.644a1.068,1.068,0,0,1-.362.932c-.537.432-1.346.709-.422,1.542.141.127-.024.358-.208.456-.208.112-.366,0-.5-.151-.426-.486-.852-.97-1.266-1.466a1.845,1.845,0,0,1-.308-2.025,1.34,1.34,0,0,1,1.567-.851C518.961,474.487,519.127,474.115,519.077,473.523Zm-.011,2.427a.823.823,0,0,0-.879-.965.915.915,0,0,0-.951.924c0,.523.244.945.76.963A.932.932,0,0,0,519.065,475.95Z" transform="translate(-448.505 -444.71)" fill="#97d158"/>
          <path id="Path_42" data-name="Path 42" d="M586.058,409.122a18.631,18.631,0,0,0,.24-4.347c.568,1.105,0,2.313.359,3.682.636-1.485,1.467-.856,2.276-.42.263.142.465.408.8.394l.011.011c.236.307.7.487.553,1.1a5.417,5.417,0,0,1-1.712-.8c-.415-.254-.849-.531-1.2-.051-.3.419.121.764.373,1.08.165.207.373.379.548.578.2.233.445.518.081.762a.5.5,0,0,1-.76-.244c-.145-.258-.254-.571-.633-.58l-.03-.034a.409.409,0,0,0-.2-.418l-.029-.03c-.168-.248-.182-.65-.623-.626Z" transform="translate(-506.314 -388.381)" fill="#97d158"/>
          <path id="Path_43" data-name="Path 43" d="M605.476,410.929c-.345-.9-.917-1.791.048-2.692a1.505,1.505,0,0,1,1.978-.164,1.445,1.445,0,0,1,.65,1.87,1.6,1.6,0,0,1-1.657,1.13,7.446,7.446,0,0,1-1.008-.134Zm1.143-2.292c-.542-.023-.878.175-.905.763a.9.9,0,1,0,1.786.025A.732.732,0,0,0,606.62,408.637Z" transform="translate(-522.054 -390.879)" fill="#97d158"/>
          <path id="Path_44" data-name="Path 44" d="M577.917,431.638c.072-.37-.034-.786.286-1.091l.057.054c-.115.529.168.663.623.626l.029.03a.41.41,0,0,0,.2.418l.03.034a1.854,1.854,0,0,1-.749,2.541c-.538.306-.178.628,0,.935.1.162.245.31.045.489-.227.2-.436.092-.586-.091-.428-.523-.835-1.062-1.25-1.595a1.75,1.75,0,0,1,.445-.9.664.664,0,0,0,.986.6.959.959,0,0,0,.623-1.1C578.618,432.1,578.262,431.877,577.917,431.638Z" transform="translate(-498.458 -409.807)" fill="#97d158"/>
          <path id="Path_45" data-name="Path 45" d="M554.111,463.372l1.808-1.351c.109.2.216.4.326.6.135.246.238.509,0,.734-.359.339-.5-.179-.77-.222l-.106-.089.089.106a1.62,1.62,0,0,1-.713,1.474.488.488,0,0,1-.714-.1c-.2-.266.008-.362.224-.5C554.737,463.722,554.568,463.5,554.111,463.372Z" transform="translate(-479.619 -435.973)" fill="#97d158"/>
          <path id="Path_46" data-name="Path 46" d="M568.648,455.9l.641-.675a2.126,2.126,0,0,0,.229.368c.218.233.965-.207.766.446-.154.505-.745.379-1.178.191A2.57,2.57,0,0,1,568.648,455.9Z" transform="translate(-491.84 -430.325)" fill="#97d158"/>
          <path id="Path_47" data-name="Path 47" d="M549.154,471.653l.239-.154Z" transform="translate(-475.634 -443.852)" fill="#97d158"/>
          <path id="Path_48" data-name="Path 48" d="M300.044,670.735c0-.344-.005-.688,0-1.032,0-.435.171-.752.645-.79.182-.015.464-.021.538.084.31.443-.508.4-.246,1.1.021.045.245-.216.436-.248.659-.11.99.269,1.227.8.217.485-.019.807-.406,1.052-.264.167-.614.33-.846.078-.4-.438.494-.5.329-.941a5.962,5.962,0,0,0-1.67-.1Z" transform="translate(-268.534 -607.964)" fill="#97d158"/>
          <path id="Path_49" data-name="Path 49" d="M506.669,500.57a1.855,1.855,0,0,1-.079,1.524C506.063,501.5,505.973,501.072,506.669,500.57Z" transform="translate(-439.9 -468.02)" fill="#97d158"/>
          <path id="Path_50" data-name="Path 50" d="M397.23,591.687c0,.191.009.383,0,.573-.057.936-.678,1.133-1.444,1.016-.849-.129-.7-.856-.6-1.365.166-.787.836-.765,1.46-.606a2.159,2.159,0,0,1,.573.37Z" transform="translate(-347.565 -543.379)" fill="#97d158"/>
          <path id="Path_51" data-name="Path 51" d="M536.4,475.428c.581-.006.944.209.909.861a.682.682,0,0,1-.675.748c-.84.065-1.126-.447-1.209-1.168l.022-.01.242-.191A.906.906,0,0,1,536.4,475.428Z" transform="translate(-464.216 -447.119)" fill="#97d158"/>
          <path id="Path_52" data-name="Path 52" d="M580.11,437.015c.345.239.7.463.746.946a.959.959,0,0,1-.623,1.1.664.664,0,0,1-.986-.6A4.469,4.469,0,0,1,580.11,437.015Z" transform="translate(-500.652 -415.184)" fill="#97d158"/>
          <path id="Path_53" data-name="Path 53" d="M535.793,476.858l-.243.191Z" transform="translate(-464.324 -448.307)" fill="#97d158"/>
          <path id="Path_54" data-name="Path 54" d="M522.587,488.046a.932.932,0,0,1-1.07.922c-.516-.018-.762-.439-.76-.963a.915.915,0,0,1,.951-.924A.823.823,0,0,1,522.587,488.046Z" transform="translate(-452.026 -456.806)" fill="#97d158"/>
          <path id="Path_55" data-name="Path 55" d="M586.894,431.489c-.455.037-.738-.1-.623-.626C586.713,430.84,586.726,431.242,586.894,431.489Z" transform="translate(-506.47 -410.069)" fill="#97d158"/>
          <path id="Path_56" data-name="Path 56" d="M590.466,435.178a.41.41,0,0,1-.2-.418A.41.41,0,0,1,590.466,435.178Z" transform="translate(-509.81 -413.309)" fill="#97d158"/>
          <path id="Path_57" data-name="Path 57" d="M610.179,412.836a.732.732,0,0,1,.88.789.9.9,0,1,1-1.786-.025C609.3,413.011,609.637,412.813,610.179,412.836Z" transform="translate(-525.612 -395.078)" fill="#97d158"/>
          <path id="Path_58" data-name="Path 58" d="M562.457,468.223l-.089-.106.106.089Z" transform="translate(-486.619 -441.041)" fill="#97d158"/>
        </g>
        <g id="Group_31" data-name="Group 31" transform="translate(94.179 0.304)">
          <path id="Path_59" data-name="Path 59" d="M686.581,309.764a21.449,21.449,0,0,0-6.614-.241.431.431,0,0,0-.119.03,10.363,10.363,0,0,0-7.824,13.145,21.769,21.769,0,0,0-1.573,2.991.436.436,0,0,0-.037.161.444.444,0,0,0,.851.191,20.865,20.865,0,0,1,1.605-3.016.251.251,0,0,0,.022-.036,21.08,21.08,0,0,1,7.754-7.148.444.444,0,0,0-.416-.785,21.743,21.743,0,0,0-7.548,6.643,9.477,9.477,0,0,1,7.422-11.3.307.307,0,0,0,.047-.012,20.641,20.641,0,0,1,6.261.242.209.209,0,0,1,.16.2v0a13.492,13.492,0,0,1-10.18,12.428.4.4,0,0,0-.121.03,13.13,13.13,0,0,1-1.809.3.442.442,0,0,0-.4.426.411.411,0,0,0,0,.057.446.446,0,0,0,.486.4,13.834,13.834,0,0,0,1.751-.279,9.176,9.176,0,0,0,12.58.446,1.069,1.069,0,0,0,.223-1.332,6.936,6.936,0,0,0-5.258-3.545,14.3,14.3,0,0,0,3.617-8.89v-.01a1.094,1.094,0,0,0-.881-1.1Zm-5.854,12.631a14.229,14.229,0,0,0,2.307-1.784,6.033,6.033,0,0,1,5.292,3.135.191.191,0,0,1-.032.237,8.245,8.245,0,0,1-10.985-.042,14.062,14.062,0,0,0,1.788-.672,20.08,20.08,0,0,1,2.86.117,21.434,21.434,0,0,1,2.783.546.444.444,0,0,0,.222-.861,22.758,22.758,0,0,0-2.9-.568c-.422-.051-.863-.086-1.338-.108Z" transform="translate(-670.415 -309.373)" fill="#97d158" stroke="#defee6" stroke-miterlimit="10" stroke-width="1.5"/>
        </g>
        <g id="Group_32" data-name="Group 32" transform="translate(0 44.924)">
          <path id="Path_60" data-name="Path 60" d="M112.859,591.529a1.094,1.094,0,0,0,1.181.775h.01a14.3,14.3,0,0,0,8.517-4.425,6.937,6.937,0,0,0,4.017,4.907,1.069,1.069,0,0,0,1.305-.345,9.176,9.176,0,0,0-1.609-12.484,13.808,13.808,0,0,0,.115-1.769.446.446,0,0,0-.444-.447.43.43,0,0,0-.057,0,.443.443,0,0,0-.387.439,13.116,13.116,0,0,1-.134,1.83.39.39,0,0,0-.019.124,13.491,13.491,0,0,1-11.432,11.287h0a.209.209,0,0,1-.218-.141,20.637,20.637,0,0,1-.82-6.211.285.285,0,0,0,.007-.048,9.477,9.477,0,0,1,10.566-8.437,21.744,21.744,0,0,0-5.915,8.131.444.444,0,0,0,.82.341,21.08,21.08,0,0,1,6.4-8.382.253.253,0,0,0,.034-.025,20.838,20.838,0,0,1,2.855-1.877.444.444,0,0,0-.269-.83.436.436,0,0,0-.157.052,21.756,21.756,0,0,0-2.833,1.843,10.363,10.363,0,0,0-12.364,9.008.44.44,0,0,0-.019.121,21.447,21.447,0,0,0,.852,6.563Zm12.034-7c.065.471.142.907.231,1.322a22.742,22.742,0,0,0,.834,2.832.445.445,0,0,0,.837-.3,21.4,21.4,0,0,1-.8-2.72,20.077,20.077,0,0,1-.381-2.837,14.068,14.068,0,0,0,.5-1.842,8.245,8.245,0,0,1,1.059,10.934.191.191,0,0,1-.233.053,6.033,6.033,0,0,1-3.612-4.979,14.221,14.221,0,0,0,1.563-2.462Z" transform="translate(-112 -573.939)" fill="#97d158" stroke="#defee6" stroke-miterlimit="10" stroke-width="1.5"/>
        </g>
      </g>
      <path id="Path_61" data-name="Path 61" d="M392.8,540.987a6.319,6.319,0,0,0-1.774,3.14,40.61,40.61,0,0,0-.413,7.211.026.026,0,0,0,.016.023l4.257,1.94.506-8.1-.506-3.879Z" transform="translate(-343.617 -501.621)" fill="#97d158"/>
      <path id="Path_62" data-name="Path 62" d="M273.674,650.9s4.039,5.947,7.865,4.389-.558-6.955-.558-6.955L275.416,648Z" transform="translate(-246.407 -590.586)" fill="#97d158"/>
      <path id="Path_63" data-name="Path 63" d="M465.73,362.33s4.056,6.516-1.957,12.9-16.3,2.166-19.5-3.737-.506,7.421-.506,7.421,12.649,7.589,19.9,2.53,7.129-11.753,7.129-11.753l-1.564-10-2.7-1.687Z" transform="translate(-386.927 -349.495)" fill="#97d158"/>
    </g>
  </g>
</svg>
