<svg xmlns="http://www.w3.org/2000/svg" width="41" height="41" viewBox="0 0 41 41">
  <g id="twitter" transform="translate(0 0)">
    <rect id="Rectangle_20" data-name="Rectangle 20" width="41" height="41" rx="11" transform="translate(0 0)" fill="#defee6"/>
    <g id="Group_22" data-name="Group 22" transform="translate(10 11.045)">
      <g id="Group_21" data-name="Group 21">
        <path id="Path_391" data-name="Path 391" d="M32.878,15.006a6.8,6.8,0,0,1-2.546.764,4.728,4.728,0,0,0,1.952-2.631A9.816,9.816,0,0,1,29.4,14.327,4.331,4.331,0,0,0,26.174,12.8a4.663,4.663,0,0,0-4.5,4.837,4.839,4.839,0,0,0,.085,1.1,12.42,12.42,0,0,1-9.249-5.007,4.6,4.6,0,0,0-.594,2.461,4.827,4.827,0,0,0,1.952,3.988,4.086,4.086,0,0,1-2.037-.594v.085A4.862,4.862,0,0,0,15.4,24.425a5.008,5.008,0,0,1-1.188.17,2.887,2.887,0,0,1-.849-.085,4.411,4.411,0,0,0,4.158,3.309A8.666,8.666,0,0,1,12,29.856a5.22,5.22,0,0,1-1.1-.085,12.056,12.056,0,0,0,6.873,2.206C26,31.978,30.5,24.68,30.5,18.316v-.594A10.138,10.138,0,0,0,32.878,15.006Z" transform="translate(-10.9 -12.8)" fill="#32594a"/>
      </g>
    </g>
  </g>
</svg>
