<svg xmlns="http://www.w3.org/2000/svg" version="1.1" xmlns:xlink="http://www.w3.org/1999/xlink" xmlns:svgjs="http://svgjs.com/svgjs" width="512" height="512" x="0" y="0" viewBox="0 0 48 48" style="enable-background:new 0 0 512 512" xml:space="preserve"><g><path d="M13.02 18.71s-2.05 2.055-4.35 4.356a11.297 11.297 0 0 0-3.32 8.006c0 3.002 1.19 5.882 3.32 8.005.08.084.16.168.25.252 2.12 2.123 5 3.316 8 3.316 3.01 0 5.89-1.193 8.01-3.316 2.3-2.3 4.36-4.356 4.36-4.356a2.51 2.51 0 0 0 0-3.535 2.506 2.506 0 0 0-3.54 0s-2.06 2.055-4.36 4.356a6.308 6.308 0 0 1-4.47 1.851c-1.67 0-3.28-.666-4.47-1.851l-.25-.252a6.345 6.345 0 0 1-1.85-4.47c0-1.677.67-3.285 1.85-4.471 2.3-2.3 4.36-4.356 4.36-4.356a2.51 2.51 0 0 0 0-3.535 2.506 2.506 0 0 0-3.54 0zm14.88-2.148-11.34 11.34c-.98.976-.98 2.56 0 3.536.97.975 2.56.975 3.53 0l11.34-11.341c.98-.976.98-2.56 0-3.535a2.494 2.494 0 0 0-3.53 0zm7.04 12.753 4.38-4.38a11.297 11.297 0 0 0 3.32-8.006c0-3.002-1.19-5.882-3.32-8.005-.08-.084-.16-.168-.25-.252-2.12-2.124-5-3.316-8-3.316a11.31 11.31 0 0 0-8.01 3.316c-2.3 2.299-4.35 4.354-4.35 4.354-.98.976-.98 2.56 0 3.536.97.975 2.56.975 3.53 0 0 0 2.06-2.055 4.36-4.355a6.308 6.308 0 0 1 4.47-1.851c1.67 0 3.28.666 4.47 1.851l.25.252a6.345 6.345 0 0 1 1.85 4.47c0 1.677-.67 3.285-1.85 4.471-2.31 2.311-4.38 4.379-4.38 4.379-.98.976-.98 2.56 0 3.536.97.975 2.56.975 3.53 0z" fill="#000000" data-original="#000000"></path></g></svg>